<svg width="8" height="9" viewBox="0 0 8 9" fill="none" xmlns="http://www.w3.org/2000/svg">
<path fill-rule="evenodd" clip-rule="evenodd" d="M4.00012 8.5C3.72398 8.5 3.50012 8.27614 3.50012 8L3.50012 2.71906C3.26804 3.05682 3.01749 3.39745 2.7855 3.66258C2.41523 4.08575 1.91137 4.52382 1.51407 4.84729C1.31275 5.01121 1.13352 5.14992 1.00442 5.24783C0.939799 5.29683 0.887563 5.33573 0.85119 5.3626L0.808914 5.39366L0.797484 5.40199L0.793421 5.40493C0.793381 5.40496 0.792952 5.40527 0.500118 5L0.793421 5.40493C0.569593 5.56666 0.25657 5.51666 0.0948422 5.29283C-0.0668752 5.06902 -0.0165516 4.75649 0.207237 4.59476C0.207241 4.59475 0.207232 4.59476 0.207237 4.59476L0.209825 4.59288L0.219184 4.58606L0.257046 4.55824C0.290372 4.53362 0.339231 4.49724 0.400197 4.45101C0.522262 4.35845 0.692163 4.22695 0.882691 4.07182C1.26908 3.75723 1.71977 3.36196 2.03292 3.00408C2.34844 2.64348 2.72931 2.08715 3.04038 1.60335C3.19367 1.36495 3.32614 1.15028 3.42024 0.995276C3.46725 0.917839 3.50458 0.85546 3.53004 0.812655L3.55901 0.763737L3.56629 0.751375L3.56803 0.748406C3.6577 0.595048 3.82247 0.499999 4.00012 0.499999C4.17778 0.499999 4.3421 0.594274 4.43177 0.747649L4.00012 0.999998C4.43177 0.747649 4.43177 0.747661 4.43177 0.747649L4.43395 0.751375L4.44122 0.763737L4.4702 0.812655C4.49565 0.85546 4.53299 0.917839 4.58 0.995276C4.6741 1.15028 4.80657 1.36495 4.95986 1.60335C5.27093 2.08715 5.65179 2.64348 5.96732 3.00408C6.28046 3.36196 6.73115 3.75723 7.11754 4.07182C7.30807 4.22695 7.47797 4.35845 7.60004 4.45101C7.661 4.49724 7.70986 4.53362 7.74319 4.55824L7.78105 4.58606L7.79041 4.59288L7.79255 4.59443L7.50012 5L7.20721 5.40522L7.20275 5.40199L7.19132 5.39366L7.14905 5.3626C7.11267 5.33573 7.06044 5.29683 6.99582 5.24783C6.86671 5.14993 6.68748 5.01121 6.48616 4.8473C6.08887 4.52382 5.58501 4.08575 5.21474 3.66258C4.98275 3.39745 4.73219 3.05682 4.50012 2.71906L4.50012 0.999998M7.79255 4.59443C7.79257 4.59445 7.79254 4.59442 7.79255 4.59443V4.59443ZM4.50012 2.71906L4.50012 8C4.50012 8.27614 4.27626 8.5 4.00012 8.5M7.79255 4.59443L7.50012 5L7.20721 5.40522C7.43104 5.56695 7.74366 5.51666 7.90539 5.29283C8.06711 5.06902 8.01634 4.75617 7.79255 4.59443Z" fill="#848380"/>
</svg>
