<svg width="15" height="18" viewBox="0 0 15 18" fill="none" xmlns="http://www.w3.org/2000/svg">
<path d="M14.8555 4.00033H11.3555C11.3555 2.15866 9.78922 0.666992 7.85547 0.666992C5.92172 0.666992 4.35547 2.15866 4.35547 4.00033H2.60547C1.64297 4.00033 0.855469 4.00033 0.855469 4.00033V15.667C0.855469 16.5837 0.855469 17.3337 0.855469 17.3337H13.1055C14.068 17.3337 14.8555 17.3337 14.8555 17.3337V5.66699C14.8555 4.75033 14.8555 4.00033 14.8555 4.00033ZM7.85547 2.33366C8.81797 2.33366 9.60547 3.08366 9.60547 4.00033H6.10547C6.10547 3.08366 6.89297 2.33366 7.85547 2.33366ZM13.1055 15.667H2.60547V5.66699H4.35547V7.33366H5.23047H6.10547V5.66699H9.60547V7.33366H10.4805H11.3555V5.66699H13.1055V15.667Z" fill="white"/>
</svg>
