<svg width="14" height="19" viewBox="0 0 14 19" fill="none" xmlns="http://www.w3.org/2000/svg">
<path d="M9.32 0.500013C9.32 0.299564 9.20029 0.11849 9.01586 0.0399706C8.83143 -0.0385493 8.61794 0.000663474 8.47345 0.139596L6.69549 1.84917C4.04827 4.39458 1.81144 7.33479 0.064606 10.5651C0.0234778 10.6378 0 10.7217 0 10.8112C0 11.0873 0.223858 11.3112 0.5 11.3112H4.81V18.5C4.81 18.698 4.92684 18.8774 5.10795 18.9574C5.28907 19.0374 5.50033 19.003 5.64671 18.8696L6.44222 18.145C9.22693 15.6083 11.5902 12.6446 13.4432 9.36502L13.9353 8.49417C14.0228 8.33937 14.0215 8.14976 13.9318 7.99619C13.8422 7.84262 13.6778 7.7482 13.5 7.7482H9.32V0.500013Z" fill="black"/>
</svg>
