<svg width="120" height="19" viewBox="0 0 120 19" fill="none" xmlns="http://www.w3.org/2000/svg">
<path d="M4.56729 17.7328C4.33859 16.8745 4.09643 15.953 3.84082 14.9682C3.58522 13.9925 3.33633 13.0777 3.11435 12.2578L1.68835 6.76923L0.84754 3.59807C0.542607 2.44615 0.26009 1.35747 0 0.332031H4.48654C4.70851 1.39586 4.93721 2.52068 5.15918 3.72003C5.38115 4.91938 5.63003 6.01032 5.83183 7.06738L7.06951 12.9896H7.37221L8.60316 6.99961C8.75115 6.32201 8.89912 5.59698 9.06056 4.83807C9.22199 4.07916 9.37668 3.31346 9.53811 2.54778C9.69955 1.78209 9.85425 1.05706 9.99551 0.365903H14.2466C14.4753 1.42974 14.7107 2.541 14.9529 3.69292C15.1951 4.84484 15.4439 5.94934 15.6726 7.02672L16.9574 12.9896H17.2466L18.4709 6.99283C18.6794 5.96288 18.9081 4.86516 19.1435 3.68614C19.3789 2.50712 19.6076 1.40263 19.8162 0.365903H24.3229C24.0404 1.40489 23.7467 2.49131 23.4417 3.62516L22.6009 6.76923L21.1278 12.2713C20.8924 13.1319 20.6435 14.0534 20.3879 15.0292C20.1323 16.0049 19.8834 16.9129 19.648 17.7396H14.8049C14.5762 16.7638 14.3408 15.7407 14.0919 14.6701C13.8431 13.5994 13.6076 12.583 13.4193 11.6141L12.1412 6.10518H11.778L10.5605 11.6344C10.352 12.5966 10.1233 13.613 9.8879 14.6971C9.65247 15.7813 9.41032 16.7977 9.21525 17.7599L4.56729 17.7328Z" fill="black"/>
<path d="M34.231 18.0508C32.851 18.085 31.4783 17.8384 30.1951 17.3258C29.1198 16.8887 28.1581 16.2096 27.3834 15.3404C26.6504 14.4984 26.0923 13.5168 25.7422 12.4538C25.3836 11.3609 25.2019 10.2169 25.2041 9.06584C25.1827 7.47935 25.5257 5.90936 26.2063 4.4785C26.8581 3.11979 27.892 1.98403 29.1794 1.21247C30.6883 0.359955 32.4012 -0.057352 34.13 0.00633846C35.4731 -0.0297415 36.8101 0.20049 38.065 0.683938C39.1303 1.11352 40.0864 1.77802 40.8632 2.62865C41.6099 3.46517 42.1818 4.44456 42.5448 5.50845C42.9221 6.64168 43.1108 7.82996 43.1032 9.02519C43.1236 10.6351 42.7615 12.2265 42.0471 13.6668C41.3778 15.0076 40.3384 16.1252 39.0538 16.8854C37.5795 17.7038 35.9134 18.1064 34.231 18.0508ZM34.1704 14.7509C34.8941 14.7665 35.6112 14.6086 36.2624 14.2902C36.8512 13.9936 37.3627 13.5619 37.7556 13.0298C38.1572 12.4755 38.4578 11.8538 38.6435 11.1935C38.8424 10.4859 38.9421 9.75382 38.9395 9.01843C38.9461 8.25637 38.8373 7.49775 38.6166 6.76879C38.4228 6.10612 38.108 5.48567 37.6884 4.93926C37.2718 4.40499 36.7364 3.97695 36.1252 3.68973C35.5141 3.40251 34.8444 3.26418 34.1704 3.28592C33.4526 3.27153 32.7413 3.42459 32.092 3.73314C31.5007 4.02871 30.9851 4.45768 30.5852 4.9867C30.1729 5.5392 29.8609 6.16089 29.6637 6.82299C29.451 7.53499 29.3444 8.27489 29.3475 9.01843C29.3467 9.75862 29.4486 10.4953 29.6502 11.2071C29.8401 11.8674 30.1478 12.4874 30.5583 13.0366C30.9545 13.5665 31.4682 13.9958 32.0583 14.2902C32.7165 14.6093 33.4402 14.7671 34.1704 14.7509Z" fill="black"/>
<path d="M53.938 18.051C52.558 18.0846 51.1855 17.838 49.9021 17.326C48.8277 16.8872 47.8663 16.2083 47.0905 15.3406C46.357 14.5 45.8009 13.5179 45.4559 12.454C45.092 11.3622 44.9079 10.2177 44.9111 9.066C44.8897 7.47951 45.2327 5.90952 45.9133 4.47866C46.5676 3.11947 47.6038 1.98379 48.8931 1.21262C50.3993 0.359352 52.1103 -0.0580511 53.8371 0.0064978C55.1802 -0.0295821 56.5172 0.200649 57.7721 0.684098C58.8393 1.11361 59.7976 1.77805 60.577 2.62881C61.3175 3.47431 61.8784 4.46359 62.225 5.53572C62.6023 6.66895 62.7909 7.85723 62.7833 9.05246C62.8105 10.657 62.4601 12.2453 61.7609 13.6872C61.0889 15.0283 60.0472 16.1458 58.7609 16.9058C57.2852 17.7188 55.6187 18.1145 53.938 18.051ZM53.8775 14.7511C54.6033 14.7667 55.3225 14.6088 55.9761 14.2903C56.5617 13.9916 57.0705 13.5602 57.4627 13.03C57.8669 12.4773 58.1678 11.855 58.3505 11.1937C58.5527 10.4868 58.6524 9.7542 58.6465 9.01859C58.6552 8.25688 58.5487 7.49829 58.3304 6.76895C58.1342 6.10591 57.8172 5.48547 57.3954 4.93942C56.9924 4.42756 56.4826 4.01119 55.9021 3.71975C55.2713 3.42134 54.5809 3.27295 53.8842 3.28608C53.1685 3.2715 52.4593 3.4246 51.8125 3.7333C51.2192 4.02861 50.7013 4.45754 50.299 4.98686C49.8863 5.53815 49.5763 6.16033 49.3842 6.82315C49.1682 7.53443 49.0616 8.27482 49.068 9.01859C49.0639 9.75901 49.1659 10.4961 49.3707 11.2072C49.561 11.8661 49.8662 12.4856 50.2721 13.0368C50.6697 13.5653 51.183 13.9943 51.7721 14.2903C52.4285 14.6077 53.1496 14.7655 53.8775 14.7511Z" fill="black"/>
<path d="M65.4208 17.732V0.331233H72.3154C73.5106 0.309441 74.7 0.504542 75.8266 0.907197C76.8088 1.25885 77.6973 1.83388 78.4231 2.58763C79.1498 3.36381 79.7026 4.2881 80.0441 5.29803C80.4305 6.4779 80.6169 7.71485 80.5957 8.95707C80.6057 10.1202 80.4425 11.2782 80.1114 12.3925C79.8009 13.4266 79.2655 14.378 78.5441 15.1775C77.755 16.0289 76.7713 16.6733 75.6786 17.0544C74.3025 17.5382 72.851 17.7678 71.3939 17.732H65.4141H65.4208ZM69.4028 14.5202H71.4208C72.4573 14.5746 73.4867 14.32 74.3804 13.7884C75.1069 13.3105 75.6612 12.6096 75.9611 11.7895C76.529 10.1604 76.5993 8.39741 76.1629 6.72778C75.9913 6.10607 75.6935 5.52695 75.2885 5.027C74.8869 4.54408 74.3743 4.16727 73.7952 3.92929C73.106 3.6566 72.3696 3.52529 71.6293 3.54305H69.4365V14.5202H69.4028Z" fill="black"/>
<path d="M91.4107 18.051C90.0307 18.0846 88.6582 17.838 87.3748 17.326C86.3004 16.8872 85.339 16.2083 84.5632 15.3406C83.8297 14.5 83.2736 13.5179 82.9286 12.454C82.5647 11.3622 82.3806 10.2177 82.3838 9.06601C82.3624 7.47951 82.7054 5.90952 83.386 4.47866C84.0383 3.1181 85.0749 1.9819 86.3658 1.21262C87.872 0.359352 89.583 -0.0580512 91.3098 0.0064978C92.6528 -0.0295821 93.9899 0.200649 95.2448 0.684098C96.312 1.11361 97.2703 1.77805 98.0497 2.62881C98.7967 3.46393 99.3666 4.44386 99.7246 5.50861C100.102 6.64184 100.291 7.83012 100.283 9.02535C100.31 10.6299 99.9597 12.2182 99.2605 13.6601C98.5884 15.0012 97.5468 16.1187 96.2604 16.8787C94.7795 17.7059 93.103 18.1112 91.4107 18.051ZM91.3501 14.7511C92.076 14.7667 92.7952 14.6088 93.4488 14.2903C94.0344 13.9916 94.5432 13.5602 94.9353 13.03C95.3396 12.4773 95.6405 11.855 95.8232 11.1937C96.0254 10.4868 96.1251 9.7542 96.1192 9.01859C96.1279 8.25689 96.0213 7.49829 95.803 6.76895C95.6069 6.10591 95.2899 5.48548 94.8681 4.93942C94.4651 4.42756 93.9553 4.01119 93.3748 3.71975C92.744 3.42134 92.0536 3.27295 91.3569 3.28608C90.6412 3.2715 89.932 3.4246 89.2851 3.7333C88.6907 4.02695 88.1725 4.45617 87.7717 4.98686C87.3589 5.53815 87.049 6.16033 86.8569 6.82315C86.6409 7.53443 86.5343 8.27482 86.5407 9.01859C86.5366 9.75901 86.6385 10.4961 86.8434 11.2072C87.0337 11.8661 87.3389 12.4856 87.7448 13.0368C88.1424 13.5653 88.6557 13.9943 89.2448 14.2903C89.9011 14.6077 90.6222 14.7655 91.3501 14.7511Z" fill="black"/>
<path d="M111.127 18.051C109.747 18.0835 108.375 17.8369 107.091 17.326C106.018 16.8888 105.058 16.2096 104.286 15.3406C103.551 14.5003 102.992 13.5182 102.645 12.454C102.283 11.3618 102.101 10.2174 102.107 9.06601C102.083 7.48002 102.424 5.91 103.102 4.47866C103.756 3.11947 104.793 1.98379 106.082 1.21263C107.588 0.359352 109.299 -0.0580512 111.026 0.0064978C112.369 -0.0308249 113.706 0.199448 114.961 0.684098C116.028 1.11361 116.986 1.77805 117.766 2.62881C118.502 3.4755 119.058 4.46471 119.4 5.53572C119.781 6.668 119.97 7.85693 119.959 9.05246C119.988 10.6573 119.638 12.2462 118.936 13.6872C118.267 15.0281 117.228 16.1457 115.943 16.9058C114.469 17.716 112.805 18.1116 111.127 18.051ZM111.066 14.7511C111.79 14.7659 112.507 14.608 113.158 14.2903C113.746 13.9953 114.256 13.5632 114.645 13.03C115.049 12.476 115.351 11.8543 115.539 11.1937C115.738 10.4861 115.838 9.75398 115.835 9.01859C115.842 8.25653 115.733 7.49791 115.512 6.76895C115.316 6.10591 114.999 5.48548 114.577 4.93943C114.176 4.42614 113.666 4.00948 113.084 3.71975C112.454 3.42018 111.763 3.27173 111.066 3.28608C110.348 3.27095 109.637 3.42405 108.988 3.7333C108.395 4.02699 107.879 4.45629 107.481 4.98686C107.066 5.5378 106.754 6.15996 106.56 6.82315C106.347 7.53515 106.24 8.27505 106.243 9.01859C106.239 9.75901 106.341 10.4961 106.546 11.2072C106.736 11.8661 107.042 12.4857 107.447 13.0368C107.847 13.5638 108.36 13.9925 108.947 14.2903C109.609 14.6078 110.334 14.7656 111.066 14.7511Z" fill="black"/>
</svg>
