<svg width="30" height="30" viewBox="0 0 30 30" fill="none" xmlns="http://www.w3.org/2000/svg">
<path d="M14.9898 29.9999C6.69109 29.9948 -0.0063498 23.2817 4.51783e-06 14.9771C0.00635883 6.68896 6.73685 -0.0126841 15.0407 1.80267e-05C23.3102 0.0114499 30.0089 6.74231 30 15.0279C29.9924 23.3453 23.2072 30.0304 14.9898 29.9999ZM29.3252 15.019C29.3328 7.12083 22.9226 0.693554 15.0241 0.678312C7.13082 0.663069 0.688812 7.08018 0.674832 14.972C0.660853 22.8727 7.06854 29.3114 14.9606 29.3254C22.8793 29.3394 29.3163 22.9286 29.3252 15.019Z" fill="black"/>
<path d="M17.5796 18.2713C17.5605 18.2688 17.5414 18.2662 17.5224 18.2637C17.4817 18.1532 17.4385 18.0439 17.4004 17.9322C16.69 15.8147 15.9821 13.6973 15.2691 11.5811C15.2399 11.4935 15.2475 11.3715 15.0747 11.3283C15.034 11.4211 14.987 11.5138 14.9514 11.6116C14.1711 13.7582 13.3921 15.9049 12.6118 18.0516C12.5838 18.129 12.5419 18.2027 12.4821 18.331C12.4288 18.1684 12.397 18.0732 12.3665 17.9766C12.153 17.2882 11.9382 16.601 11.7285 15.9113C11.3523 14.6779 10.9749 13.4458 10.6038 12.2111C10.4755 11.7818 10.5898 11.5824 11.0168 11.4604C11.1528 11.4211 11.2952 11.4033 11.4337 11.369C11.5125 11.3499 11.6002 11.3283 11.5442 11.1657C11.2392 11.1657 10.919 11.1645 10.5987 11.1645C10.2734 11.1645 9.94804 11.1594 9.6227 11.1657C9.30626 11.1721 8.98727 11.1378 8.65176 11.1924C8.70006 11.3804 8.82587 11.3677 8.92627 11.3842C9.3698 11.4566 9.65956 11.7081 9.81588 12.1235C9.85527 12.2276 9.89594 12.3318 9.92898 12.4385C10.6508 14.7858 11.3714 17.1345 12.0933 19.4818C12.1111 19.5402 12.1212 19.6025 12.1504 19.6546C12.1721 19.6927 12.2178 19.7384 12.2547 19.7397C12.2915 19.7409 12.3487 19.7003 12.3652 19.6647C12.4161 19.5542 12.4529 19.4374 12.4949 19.323C13.2358 17.2704 13.9767 15.2177 14.7189 13.1651C14.757 13.0596 14.8053 12.958 14.8752 12.7903C14.9425 12.9593 14.9832 13.0495 15.0162 13.1422C15.7406 15.2444 16.4638 17.3453 17.1869 19.4475C17.2136 19.5237 17.2301 19.6063 17.2669 19.6774C17.3152 19.774 17.4296 19.7765 17.4804 19.6838C17.5148 19.6228 17.5313 19.5517 17.5542 19.4844C17.7486 18.9077 17.943 18.3297 18.1375 17.7531C18.2252 17.4939 18.3103 17.2348 18.4044 16.9541C18.2735 16.9541 18.1667 16.9541 18.0574 16.9541C17.8935 17.4025 17.7359 17.8369 17.5796 18.2713ZM21.3451 11.2521C21.3324 11.2305 21.3197 11.2089 21.3057 11.1873C20.3894 11.1873 19.4732 11.1873 18.4819 11.1873C18.5645 11.2788 18.595 11.3423 18.6433 11.3614C18.7462 11.402 18.8593 11.4147 18.9661 11.4452C19.4528 11.5862 19.5863 11.7818 19.4859 12.2721C19.4007 12.6887 19.2863 13.099 19.1758 13.5106C19.0944 13.8116 18.9979 14.1088 18.9025 14.4264C19.0436 14.4264 19.1605 14.4264 19.2813 14.4264C19.3054 14.3654 19.3245 14.3197 19.3423 14.2727C19.5761 13.6566 19.8099 13.0406 20.0425 12.4245C20.2509 11.8745 20.5534 11.4287 21.2066 11.3626C21.2562 11.3563 21.2994 11.2902 21.3451 11.2521ZM25.009 10.3693C25.5822 9.89553 26.121 9.45223 26.6586 9.00638C26.6967 8.97463 26.7412 8.94033 26.7603 8.89714C26.7781 8.8565 26.7819 8.79044 26.7603 8.75742C26.7387 8.72566 26.6726 8.7028 26.6319 8.71042C26.576 8.71931 26.5163 8.75234 26.4718 8.78917C25.9431 9.2274 25.4157 9.66689 24.8807 10.114C24.9252 10.2055 24.9595 10.2728 25.009 10.3693ZM25.8173 17.2247C25.8618 17.2323 25.8923 17.2424 25.9215 17.2424C26.6078 17.2221 27.2953 17.2005 27.9816 17.1789C28.021 17.1777 28.0718 17.1827 28.0985 17.1624C28.1417 17.1294 28.2014 17.0748 28.1989 17.0328C28.1964 16.9884 28.1354 16.9363 28.0871 16.9109C28.0464 16.8893 27.9879 16.8995 27.9384 16.902C27.3017 16.9223 26.6662 16.9465 26.0295 16.9643C25.8618 16.9668 25.7855 17.0328 25.8173 17.2247ZM7.35802 7.05407C6.69972 6.67554 6.07827 6.31861 5.45681 5.96168C5.44792 5.9566 5.43775 5.94771 5.43013 5.94898C5.36785 5.95914 5.30558 5.97185 5.24204 5.98328C5.25475 6.04552 5.24967 6.12173 5.28398 6.16619C5.32338 6.21954 5.39708 6.24748 5.45809 6.28305C5.77326 6.46469 6.08716 6.6476 6.40361 6.8267C6.65651 6.97023 6.91068 7.10995 7.16867 7.25476C7.23221 7.18744 7.27923 7.1379 7.35802 7.05407ZM13.5115 4.06653C13.2231 3.41745 12.9524 2.80521 12.6779 2.19551C12.6321 2.09389 12.6016 1.91987 12.4415 1.98973C12.2801 2.05959 12.3843 2.19932 12.43 2.30347C12.6715 2.85094 12.9168 3.39713 13.1621 3.94205C13.19 4.00429 13.2307 4.06272 13.2688 4.13004C13.3451 4.10972 13.4099 4.0932 13.5115 4.06653ZM4.35243 12.0574C3.87586 12.1146 3.40564 12.1654 2.93669 12.2264C2.71684 12.2556 2.49697 12.2911 2.2822 12.3458C2.22755 12.3597 2.19451 12.4563 2.15257 12.516C2.20976 12.5477 2.26441 12.5858 2.32541 12.6074C2.35972 12.6201 2.40547 12.6049 2.44487 12.5998C3.00532 12.5211 3.5645 12.4372 4.12495 12.3674C4.30795 12.3432 4.36514 12.2543 4.35243 12.0574ZM16.6366 25.9358C16.9314 26.5975 17.2186 27.2428 17.5071 27.8881C17.5237 27.9249 17.5427 27.9681 17.5732 27.9872C17.6113 28.01 17.6711 28.0303 17.7067 28.0151C17.7435 27.9999 17.7804 27.944 17.7867 27.902C17.7931 27.8576 17.7664 27.8055 17.7473 27.7598C17.4893 27.178 17.2263 26.5975 16.9721 26.0132C16.9009 25.8532 16.812 25.8214 16.6366 25.9358ZM4.12749 13.1358C3.50604 13.2197 2.91763 13.2997 2.32795 13.3784C2.22755 13.3924 2.12715 13.4051 2.02803 13.4191C1.91619 13.4343 1.78148 13.4458 1.80308 13.5982C1.82215 13.7341 1.9505 13.7074 2.04963 13.6973C2.1602 13.6846 2.26949 13.663 2.37878 13.649C2.86934 13.5817 3.35989 13.5169 3.84917 13.4483C4.09191 13.414 4.09064 13.4102 4.12749 13.1358ZM5.14545 19.9556C5.10479 19.981 5.07555 19.9924 5.05522 20.0128C4.585 20.4751 4.11605 20.9387 3.64838 21.4024C3.61279 21.4379 3.56958 21.4748 3.55433 21.5192C3.54035 21.5612 3.54416 21.6272 3.56958 21.6577C3.595 21.6882 3.66617 21.7085 3.70175 21.6933C3.77419 21.6628 3.84409 21.6158 3.90001 21.5599C4.3232 21.1369 4.74005 20.7076 5.16579 20.2871C5.28525 20.169 5.24204 20.075 5.14545 19.9556ZM7.59822 23.1616C7.00472 23.5401 6.43157 23.9047 5.85968 24.2705C5.82537 24.2921 5.77707 24.3112 5.76436 24.3429C5.74276 24.3937 5.72242 24.4687 5.7453 24.5068C5.76563 24.5423 5.84443 24.5538 5.8978 24.555C5.93339 24.5563 5.97024 24.5233 6.00456 24.5017C6.57644 24.1359 7.1496 23.7688 7.72022 23.4017C7.7431 23.3877 7.75453 23.3547 7.77614 23.3229C7.72149 23.2734 7.67066 23.2264 7.59822 23.1616ZM8.19425 6.33259C7.65287 6.01376 7.1585 5.72161 6.66159 5.43201C6.5828 5.38628 6.50019 5.3469 6.41759 5.31134C6.33117 5.2745 6.23331 5.24782 6.18121 5.35706C6.13673 5.44979 6.20408 5.50695 6.27906 5.55014C6.83824 5.87277 7.39742 6.19413 7.96423 6.52058C8.0354 6.46215 8.09513 6.41388 8.19425 6.33259ZM15.578 26.0209C15.5754 26.045 15.5653 26.0679 15.5716 26.0831C15.8118 26.6407 16.052 27.1984 16.2947 27.7547C16.3227 27.8195 16.357 27.8881 16.4078 27.9325C16.4447 27.9656 16.5248 27.9872 16.5642 27.9694C16.6023 27.9516 16.6239 27.8766 16.6315 27.8246C16.6366 27.7903 16.6061 27.7496 16.5896 27.7128C16.3595 27.1945 16.127 26.6776 15.9033 26.158C15.8321 25.9942 15.7394 25.9396 15.578 26.0209ZM25.4106 11.3512C25.4615 11.3245 25.4996 11.3105 25.5288 11.2864C25.9546 10.9447 26.3803 10.6018 26.8035 10.2563C26.8734 10.1991 26.9382 10.1331 27.0005 10.0683C27.0602 10.006 27.1098 9.91966 27.0259 9.86123C26.9789 9.82821 26.8632 9.83583 26.8162 9.87267C26.3129 10.2779 25.816 10.692 25.3102 11.1111C25.3471 11.1975 25.3763 11.2674 25.4106 11.3512ZM25.5555 18.2751C25.6343 18.2789 25.7144 18.2878 25.7932 18.2865C26.3396 18.2738 26.8848 18.2599 27.4313 18.2446C27.4821 18.2434 27.5317 18.2332 27.5813 18.2256C27.6677 18.2129 27.7579 18.176 27.7287 18.0795C27.7122 18.0249 27.6156 17.9576 27.5558 17.9588C26.9484 17.9703 26.3422 17.9931 25.736 18.0135C25.5733 18.0211 25.5377 18.1214 25.5555 18.2751ZM22.588 7.01469C23.1904 6.67554 23.7712 6.3491 24.352 6.02138C24.3863 6.00233 24.4295 5.98074 24.446 5.94898C24.4676 5.90961 24.488 5.84101 24.4676 5.81561C24.4371 5.77623 24.3736 5.74575 24.3228 5.74194C24.2783 5.73813 24.23 5.77496 24.1855 5.7991C23.6136 6.12173 23.0405 6.44563 22.4699 6.77208C22.447 6.78478 22.4343 6.81781 22.4114 6.84829C22.4673 6.8991 22.5169 6.94737 22.588 7.01469ZM4.69176 18.909C4.28635 19.3002 3.91399 19.6571 3.54417 20.0153C3.45012 20.1068 3.35989 20.2046 3.2722 20.3024C3.19976 20.3849 3.09428 20.4815 3.21374 20.5856C3.31541 20.6745 3.39929 20.5755 3.47173 20.5043C3.71065 20.2693 3.9483 20.0331 4.18595 19.7968C4.39437 19.5898 4.60153 19.3827 4.8074 19.1782C4.76928 19.0931 4.74259 19.0296 4.69176 18.909ZM10.0573 24.8853C9.99507 25.5293 9.93152 26.1517 9.87687 26.7754C9.86671 26.8935 9.78791 27.0751 9.98871 27.0929C10.1514 27.1069 10.1476 26.9265 10.159 26.8173C10.2149 26.2635 10.2543 25.7084 10.3064 25.1546C10.3204 24.9933 10.2645 24.9031 10.0573 24.8853ZM21.5968 23.8374C22.0721 24.1359 22.522 24.4191 22.9744 24.6998C23.0862 24.7684 23.2044 24.8256 23.3213 24.8866C23.4103 24.9336 23.512 24.9526 23.5437 24.837C23.5577 24.7849 23.5031 24.6808 23.451 24.6478C22.9121 24.3124 22.3682 23.986 21.8204 23.6545C21.748 23.7129 21.6883 23.7624 21.5968 23.8374ZM22.4394 23.1324C23.0672 23.5135 23.6568 23.8729 24.2465 24.2311C24.2808 24.2527 24.3177 24.2807 24.3558 24.2819C24.4003 24.2845 24.474 24.2743 24.4867 24.2464C24.5096 24.2007 24.5058 24.1321 24.4918 24.08C24.4829 24.0482 24.4346 24.0254 24.4003 24.005C23.8195 23.6519 23.2387 23.3001 22.649 22.9419C22.5791 23.0054 22.522 23.0575 22.4394 23.1324ZM14.5613 3.9738C14.5638 3.94459 14.574 3.92172 14.5676 3.90521C14.3185 3.32853 14.0682 2.75313 13.8153 2.17772C13.7949 2.132 13.7695 2.07738 13.7301 2.05578C13.6844 2.03038 13.6158 2.02022 13.5675 2.03673C13.5357 2.04816 13.5141 2.11675 13.509 2.16121C13.5052 2.19678 13.5306 2.23869 13.5471 2.27553C13.7822 2.80267 14.0224 3.32853 14.2537 3.85948C14.3224 4.01699 14.4215 4.03858 14.5613 3.9738ZM4.8862 10.556C5.0387 10.4011 5.02091 10.2893 4.88493 10.1737C4.7464 10.0556 4.62059 9.92347 4.48969 9.79772C4.18468 9.50303 3.8784 9.20834 3.57339 8.91366C3.50477 8.8476 3.42089 8.78409 3.33574 8.86031C3.23026 8.95684 3.3116 9.04322 3.38531 9.11435C3.87967 9.59068 4.37531 10.0657 4.8862 10.556ZM21.0846 5.80037C21.1113 5.76861 21.1329 5.75591 21.1354 5.7394C21.2333 5.13859 21.3312 4.53905 21.4252 3.93824C21.443 3.82265 21.4887 3.66768 21.3159 3.64355C21.1571 3.62195 21.1672 3.77565 21.1507 3.88108C21.0592 4.46156 20.9702 5.04332 20.8813 5.62381C20.8787 5.64159 20.8902 5.66191 20.9003 5.70129C20.955 5.72923 21.0223 5.76607 21.0846 5.80037ZM4.20247 17.3885C4.24187 17.184 4.17324 17.1002 4.00803 17.0862C3.87713 17.0748 3.74623 17.0583 3.61534 17.043C3.15274 16.9871 2.69142 16.9312 2.22882 16.8741C2.18816 16.869 2.14113 16.8487 2.11063 16.8626C2.05345 16.8893 2.00769 16.9363 1.95559 16.9744C1.99626 17.024 2.0293 17.1065 2.07632 17.1154C2.30507 17.1586 2.53637 17.1827 2.76767 17.2119C3.24043 17.2716 3.71065 17.3275 4.20247 17.3885ZM20.1645 5.22496C20.2687 4.56445 20.3729 3.91537 20.4733 3.26629C20.4822 3.20659 20.4898 3.14181 20.4746 3.08592C20.4632 3.04655 20.4149 2.99828 20.3767 2.99193C20.3386 2.98558 20.2802 3.01606 20.2522 3.04782C20.2217 3.08338 20.2103 3.13927 20.2026 3.18881C20.1124 3.77819 20.0285 4.37011 19.9332 4.95949C19.9065 5.12588 19.9561 5.21099 20.1645 5.22496ZM9.52866 5.40279C9.73327 5.37993 9.78283 5.27958 9.75614 5.10683C9.67862 4.60764 9.61126 4.10717 9.53882 3.60798C9.5223 3.49874 9.51341 3.38569 9.47909 3.28154C9.46511 3.23962 9.38886 3.18881 9.34565 3.19262C9.30244 3.19643 9.24653 3.25867 9.23128 3.30694C9.21476 3.36029 9.23509 3.42634 9.24271 3.48604C9.27576 3.72611 9.3088 3.96618 9.34565 4.20625C9.40411 4.60256 9.46639 5.00013 9.52866 5.40279ZM4.48588 11.6103C4.60915 11.4414 4.60279 11.3347 4.4719 11.2127C4.05887 10.8266 3.656 10.429 3.24805 10.0365C3.20484 9.99588 3.15655 9.95142 3.10318 9.93364C3.06378 9.92093 2.99642 9.93745 2.96973 9.96793C2.94432 9.99715 2.94305 10.0607 2.95194 10.1038C2.95957 10.1394 2.99642 10.1699 3.02565 10.1978C3.5035 10.6627 3.98389 11.1251 4.48588 11.6103ZM16.2515 4.02715C16.465 4.1275 16.5527 4.05129 16.6277 3.90267C16.8806 3.40729 17.1424 2.91826 17.4017 2.42668C17.4207 2.39112 17.4538 2.35301 17.4512 2.31872C17.4461 2.25775 17.4182 2.19805 17.4004 2.13835C17.3394 2.1574 17.2644 2.16248 17.2212 2.20059C17.1716 2.24504 17.1487 2.31999 17.1157 2.38223C16.9314 2.73027 16.7484 3.07957 16.5654 3.42761C16.4625 3.62322 16.3608 3.81884 16.2515 4.02715ZM13.6196 25.9231C13.3107 26.5086 13.0134 27.0713 12.7185 27.634C12.7007 27.6683 12.6804 27.7128 12.6868 27.7471C12.6957 27.7903 12.7223 27.8474 12.7579 27.8639C12.7935 27.8805 12.8583 27.869 12.8939 27.8449C12.932 27.8195 12.9562 27.7674 12.9791 27.7229C13.2739 27.159 13.5687 26.595 13.861 26.0298C13.8674 26.0171 13.8547 25.9955 13.8483 25.9662C13.7848 25.9561 13.7162 25.9421 13.6196 25.9231ZM4.50494 18.4682C4.50875 18.2751 4.45919 18.1862 4.28635 18.1671C3.71192 18.1024 3.13876 18.0249 2.5656 17.9512C2.45631 17.9372 2.34701 17.9347 2.33176 18.0693C2.31778 18.19 2.422 18.2091 2.51604 18.2218C2.76767 18.2548 3.01803 18.2891 3.27093 18.3208C3.67253 18.3691 4.07285 18.4161 4.50494 18.4682ZM20.2128 24.7545C19.9472 24.8396 19.9472 24.8408 19.9701 25.039C20.0057 25.3413 20.0412 25.6436 20.0794 25.9459C20.1149 26.2279 20.1518 26.5099 20.1899 26.7919C20.2026 26.8833 20.2522 26.9583 20.3475 26.9265C20.3971 26.91 20.425 26.8274 20.4581 26.7716C20.4657 26.7576 20.4543 26.7322 20.4517 26.7119C20.3742 26.0691 20.2954 25.4251 20.2128 24.7545ZM15.1306 3.96745C15.306 4.03096 15.4102 3.99667 15.4915 3.83789C15.7406 3.3514 15.9999 2.87126 16.2566 2.38731C16.2706 2.36063 16.282 2.33142 16.2973 2.30601C16.3443 2.22091 16.3341 2.14597 16.2477 2.09897C16.1499 2.04689 16.099 2.11929 16.0533 2.18916C16.0304 2.22218 16.0139 2.25902 15.9948 2.29585C15.7343 2.78742 15.475 3.28027 15.2158 3.77311C15.1827 3.83154 15.1611 3.89632 15.1306 3.96745ZM21.5459 6.10141C21.7366 6.29956 21.7391 6.30337 21.9285 6.19921C22.405 5.93501 22.8803 5.66699 23.3556 5.40025C23.3912 5.37993 23.4383 5.36722 23.4573 5.33674C23.4891 5.28212 23.5336 5.20845 23.5183 5.15891C23.4891 5.0611 23.4001 5.06618 23.3188 5.11064C23.2031 5.17288 23.0888 5.23639 22.9744 5.30117C22.4991 5.56538 22.0251 5.83212 21.5459 6.10141ZM25.858 12.9771C25.8567 13.1384 25.8326 13.2514 26.0092 13.2883C26.5747 13.4051 27.139 13.5309 27.7033 13.6528C27.7325 13.6592 27.7694 13.6744 27.7922 13.663C27.8494 13.635 27.899 13.5931 27.9524 13.5575C27.9117 13.508 27.8761 13.4534 27.8304 13.4089C27.8113 13.3899 27.7744 13.3886 27.7439 13.3823C27.1301 13.2502 26.5163 13.1181 25.858 12.9771ZM8.4319 23.8577C7.89306 24.2007 7.36184 24.5373 6.83189 24.8751C6.80647 24.8916 6.76835 24.9056 6.76072 24.9298C6.74166 24.9907 6.7353 25.0568 6.72386 25.1203C6.78741 25.1279 6.85095 25.1419 6.91577 25.1419C6.94245 25.1419 6.96914 25.1152 6.99456 25.0987C7.52451 24.7595 8.05573 24.4217 8.58568 24.0813C8.60728 24.0673 8.61872 24.0368 8.64287 24.0012C8.56916 23.9504 8.50434 23.906 8.4319 23.8577ZM8.56789 6.02773C8.72929 5.95787 8.83096 5.91215 8.80173 5.7305C8.71404 5.1805 8.64414 4.62669 8.56026 4.07542C8.54501 3.9738 8.55136 3.8163 8.38742 3.84424C8.22602 3.87219 8.28194 4.01953 8.29592 4.12115C8.38107 4.74482 8.47257 5.36468 8.56789 6.02773ZM25.6025 11.8847C25.5835 12.0663 25.6419 12.154 25.8173 12.1895C26.3434 12.295 26.8658 12.4182 27.3894 12.5312C27.4478 12.5439 27.5126 12.5554 27.5686 12.5427C27.6079 12.5338 27.6601 12.4868 27.6677 12.4487C27.6753 12.4105 27.6461 12.3521 27.6143 12.3229C27.58 12.2911 27.5241 12.2772 27.4758 12.267C26.9026 12.1413 26.3282 12.0168 25.755 11.8936C25.708 11.8847 25.6584 11.8885 25.6025 11.8847ZM9.108 24.3353C9.08894 24.3696 9.07369 24.3874 9.07115 24.4052C9.00506 25.0415 8.93644 25.6766 8.88052 26.3143C8.87543 26.3727 8.93898 26.4807 8.98981 26.4934C9.10928 26.5239 9.13469 26.4184 9.14486 26.3219C9.20204 25.7567 9.25669 25.1901 9.31897 24.6249C9.33803 24.4636 9.27703 24.3734 9.108 24.3353ZM21.1774 24.1537C21.0173 24.2134 20.9143 24.2629 20.9372 24.4369C21.0071 24.9691 21.0681 25.5026 21.1354 26.0348C21.1443 26.1047 21.1532 26.1784 21.1837 26.2406C21.2015 26.2762 21.2651 26.3105 21.3032 26.3067C21.3413 26.3029 21.3947 26.2533 21.4036 26.2152C21.4188 26.1492 21.4125 26.0742 21.4049 26.0044C21.3528 25.5522 21.2981 25.1 21.2422 24.6465C21.2219 24.489 21.2003 24.3315 21.1774 24.1537ZM24.7638 20.0902C25.1806 20.5844 25.5771 21.0556 25.9749 21.5269C26.0295 21.5916 26.0956 21.6501 26.182 21.5866C26.2824 21.5142 26.2469 21.4265 26.1833 21.3516C25.7677 20.8562 25.3509 20.3633 24.9188 19.8514C24.8603 19.9378 24.8197 20.0026 24.7638 20.0902ZM25.375 18.8086C25.2302 18.9572 25.253 19.0741 25.3712 19.21C25.7093 19.5999 26.0359 19.9988 26.3689 20.3926C26.4083 20.4383 26.4451 20.4967 26.4959 20.5196C26.543 20.5399 26.6243 20.5412 26.6586 20.512C26.6904 20.4853 26.6967 20.4002 26.6789 20.3545C26.6548 20.2909 26.5989 20.2389 26.5531 20.1855C26.2214 19.7905 25.8897 19.3954 25.5568 19.0017C25.5009 18.9356 25.4373 18.8747 25.375 18.8086ZM15.0353 26.0323C14.8714 26.0247 14.7608 25.9789 14.6896 26.1136C14.4151 26.6344 14.1381 27.1526 13.8648 27.6734C13.8204 27.7585 13.7988 27.8665 13.9157 27.8995C13.9652 27.9135 14.0695 27.8512 14.1 27.7966C14.2893 27.4613 14.466 27.1183 14.6452 26.7779C14.7684 26.5455 14.8892 26.313 15.0353 26.0323Z" fill="black"/>
<path d="M17.5802 18.2722C17.7378 17.8378 17.8953 17.4047 18.058 16.9563C18.1673 16.9563 18.2741 16.9563 18.405 16.9563C18.3109 17.237 18.2258 17.4961 18.1381 17.7553C17.9436 18.3319 17.7492 18.9099 17.5548 19.4866C17.5319 19.5539 17.5154 19.625 17.481 19.686C17.4289 19.7787 17.3158 19.7762 17.2675 19.6796C17.2307 19.6085 17.2142 19.5272 17.1875 19.4497C16.4644 17.3475 15.7412 15.2453 15.0168 13.1444C14.9851 13.0504 14.9431 12.9602 14.8758 12.7926C14.8059 12.9602 14.7576 13.0618 14.7195 13.1673C13.9773 15.2199 13.2376 17.2726 12.4954 19.3252C12.4535 19.4396 12.4179 19.5564 12.3658 19.6669C12.3493 19.7038 12.2921 19.7444 12.2552 19.7419C12.2184 19.7406 12.1726 19.6949 12.151 19.6568C12.1218 19.6047 12.1129 19.5424 12.0938 19.484C11.3733 17.1367 10.6514 14.788 9.92956 12.4407C9.89652 12.334 9.85585 12.2298 9.81646 12.1257C9.66014 11.7103 9.37038 11.4588 8.92685 11.3864C8.82645 11.3699 8.69937 11.3826 8.65234 11.1946C8.98785 11.14 9.30684 11.1743 9.62328 11.168C9.94862 11.1616 10.274 11.1667 10.5993 11.1667C10.9196 11.1667 11.2398 11.1667 11.5448 11.168C11.6007 11.3305 11.5131 11.3521 11.4343 11.3712C11.2957 11.4042 11.1547 11.4233 11.0174 11.4626C10.5904 11.5846 10.476 11.7827 10.6044 12.2133C10.9755 13.448 11.3517 14.6801 11.7291 15.9135C11.9401 16.6032 12.1548 17.2904 12.3671 17.9788C12.3963 18.0753 12.4294 18.1706 12.4827 18.3332C12.5425 18.2049 12.5844 18.1312 12.6124 18.0538C13.3927 15.9071 14.1717 13.7605 14.952 11.6138C14.9876 11.516 15.0346 11.422 15.0753 11.3305C15.2481 11.3737 15.2405 11.4957 15.2697 11.5833C15.9814 13.6995 16.6906 15.8169 17.401 17.9344C17.4378 18.0461 17.4823 18.1554 17.523 18.2659C17.542 18.2671 17.5611 18.2697 17.5802 18.2722Z" fill="black"/>
<path d="M21.3451 11.2526C21.2993 11.2907 21.2574 11.3567 21.2091 11.3618C20.5559 11.4291 20.2534 11.8737 20.045 12.4237C19.8124 13.0398 19.5786 13.6558 19.3447 14.2719C19.327 14.3189 19.3079 14.3646 19.2837 14.4256C19.163 14.4256 19.0474 14.4256 18.905 14.4256C19.0003 14.1093 19.0969 13.812 19.1783 13.5097C19.2888 13.0995 19.4032 12.6879 19.4884 12.2713C19.5888 11.7797 19.4553 11.5854 18.9686 11.4444C18.8618 11.4139 18.7487 11.3999 18.6458 11.3605C18.5975 11.3415 18.567 11.2792 18.4844 11.1865C19.4756 11.1865 20.3919 11.1865 21.3082 11.1865C21.3184 11.2094 21.3311 11.231 21.3451 11.2526Z" fill="black"/>
<path d="M25.0059 10.3719C24.9563 10.2754 24.922 10.2081 24.875 10.1166C25.41 9.67077 25.9374 9.23 26.4661 8.79178C26.5119 8.75494 26.5703 8.72192 26.6262 8.71302C26.6669 8.70667 26.733 8.72827 26.7546 8.76002C26.7775 8.79305 26.7724 8.8591 26.7546 8.89975C26.7368 8.94294 26.6923 8.97723 26.6529 9.00899C26.1179 9.45484 25.5791 9.89941 25.0059 10.3719Z" fill="black"/>
<path d="M25.8161 17.2248C25.783 17.033 25.8606 16.967 26.0283 16.9619C26.665 16.9441 27.3004 16.92 27.9371 16.8997C27.988 16.8984 28.0452 16.8882 28.0858 16.9085C28.1341 16.9339 28.1951 16.986 28.1977 17.0305C28.2002 17.0724 28.1417 17.127 28.0973 17.16C28.0693 17.1816 28.0197 17.1753 27.9803 17.1765C27.2941 17.1981 26.6065 17.2197 25.9203 17.24C25.8911 17.2438 25.8618 17.2337 25.8161 17.2248Z" fill="black"/>
<path d="M7.35691 7.05345C7.27811 7.13728 7.23109 7.18682 7.16882 7.25414C6.91083 7.10934 6.65666 6.96961 6.40376 6.82608C6.08731 6.64571 5.77341 6.46407 5.45823 6.28243C5.39723 6.24686 5.32352 6.21892 5.28412 6.16557C5.24981 6.11984 5.2549 6.0449 5.24219 5.98266C5.30446 5.97123 5.36673 5.95853 5.43028 5.94836C5.4379 5.94709 5.44807 5.95599 5.45696 5.96107C6.07715 6.31673 6.69733 6.67366 7.35691 7.05345Z" fill="black"/>
<path d="M13.5102 4.06657C13.4085 4.09324 13.3437 4.10976 13.2662 4.13008C13.2281 4.06276 13.1874 4.0056 13.1595 3.94208C12.9142 3.39588 12.6689 2.85095 12.4274 2.30348C12.3804 2.19805 12.2775 2.0596 12.4389 1.98973C12.6003 1.91987 12.6295 2.09389 12.6752 2.19551C12.951 2.80522 13.2217 3.41621 13.5102 4.06657Z" fill="black"/>
<path d="M4.35222 12.0586C4.36366 12.2567 4.30647 12.3444 4.12473 12.3673C3.56301 12.4371 3.00383 12.5222 2.44465 12.5997C2.40525 12.6048 2.3595 12.62 2.32518 12.6073C2.26418 12.5857 2.20953 12.5476 2.15234 12.5159C2.19555 12.4574 2.22859 12.3596 2.28197 12.3457C2.49675 12.291 2.71661 12.2555 2.93647 12.2263C3.40542 12.1666 3.87564 12.1145 4.35222 12.0586Z" fill="black"/>
<path d="M16.6367 25.9354C16.8108 25.8223 16.9011 25.8541 16.971 26.0141C17.2251 26.5984 17.4882 27.1789 17.7462 27.7607C17.7665 27.8064 17.7919 27.8585 17.7856 27.9029C17.7805 27.9449 17.7436 28.0008 17.7055 28.016C17.6699 28.03 17.6102 28.0109 17.5721 27.9881C17.5416 27.969 17.5225 27.9258 17.506 27.889C17.2188 27.2424 16.9316 26.5959 16.6367 25.9354Z" fill="black"/>
<path d="M4.12624 13.1367C4.08938 13.4124 4.08939 13.4149 3.84919 13.4492C3.35863 13.5178 2.86808 13.5826 2.37879 13.6499C2.26822 13.6652 2.15893 13.6867 2.04963 13.6982C1.95051 13.7096 1.82215 13.7363 1.80308 13.5991C1.78148 13.4454 1.91619 13.4352 2.02803 13.42C2.12843 13.406 2.22756 13.392 2.32796 13.3793C2.91637 13.2993 3.50478 13.2206 4.12624 13.1367Z" fill="black"/>
<path d="M5.14602 19.9546C5.2426 20.0753 5.28581 20.1693 5.16635 20.2874C4.74061 20.7078 4.32377 21.1372 3.90057 21.5601C3.84465 21.616 3.77476 21.663 3.70232 21.6935C3.66673 21.7087 3.59556 21.6872 3.57015 21.6579C3.54473 21.6275 3.54092 21.5614 3.5549 21.5195C3.57015 21.475 3.61208 21.4382 3.64894 21.4026C4.11789 20.939 4.58684 20.4754 5.05578 20.013C5.07485 19.9914 5.10408 19.98 5.14602 19.9546Z" fill="black"/>
<path d="M7.59609 23.1611C7.66853 23.2272 7.72063 23.2729 7.77528 23.3225C7.75368 23.3542 7.74224 23.386 7.71936 23.4012C7.14875 23.7696 6.57559 24.1354 6.0037 24.5012C5.96939 24.5228 5.93253 24.5559 5.89695 24.5546C5.84357 24.5533 5.76478 24.5419 5.74444 24.5063C5.72157 24.4682 5.7419 24.3933 5.7635 24.3425C5.77621 24.3107 5.82451 24.2916 5.85882 24.27C6.42944 23.9042 7.0026 23.5384 7.59609 23.1611Z" fill="black"/>
<path d="M8.19117 6.33173C8.09204 6.41175 8.03231 6.46129 7.96114 6.51972C7.39435 6.19327 6.83517 5.87191 6.276 5.54927C6.20229 5.50609 6.13367 5.44893 6.17815 5.3562C6.23025 5.24696 6.3281 5.27364 6.41452 5.31047C6.4984 5.34604 6.581 5.38541 6.65853 5.43114C7.15543 5.72202 7.64979 6.01417 8.19117 6.33173Z" fill="black"/>
<path d="M15.5754 26.0229C15.7356 25.9416 15.8296 25.9949 15.8995 26.1588C16.1232 26.6796 16.357 27.1953 16.5858 27.7135C16.6023 27.7504 16.6328 27.791 16.6277 27.8253C16.6201 27.8787 16.5985 27.9523 16.5604 27.9701C16.521 27.9892 16.4409 27.9663 16.4041 27.9333C16.3532 27.8888 16.3202 27.819 16.2909 27.7555C16.0482 27.1991 15.808 26.6415 15.5678 26.0838C15.5627 26.0699 15.5729 26.047 15.5754 26.0229Z" fill="black"/>
<path d="M25.4116 11.3517C25.3773 11.2679 25.3481 11.198 25.3125 11.1116C25.8183 10.6937 26.3152 10.2784 26.8185 9.87318C26.8642 9.83634 26.9811 9.82999 27.0282 9.86174C27.112 9.92017 27.0637 10.0065 27.0027 10.0688C26.9392 10.1348 26.8757 10.1996 26.8058 10.2568C26.3826 10.601 25.9568 10.944 25.5311 11.2869C25.5006 11.3111 25.4625 11.3238 25.4116 11.3517Z" fill="black"/>
<path d="M25.5549 18.275C25.5371 18.1213 25.5727 18.0197 25.7367 18.0146C26.3429 17.9943 26.9503 17.9701 27.5566 17.96C27.6163 17.9587 27.7129 18.026 27.7294 18.0806C27.7586 18.1772 27.6684 18.214 27.582 18.2267C27.5324 18.2343 27.4816 18.2445 27.432 18.2458C26.8855 18.261 26.3403 18.275 25.7939 18.2877C25.7125 18.2889 25.6337 18.2788 25.5549 18.275Z" fill="black"/>
<path d="M22.5882 7.01765C22.517 6.94906 22.4674 6.90206 22.4141 6.85126C22.4369 6.8195 22.4496 6.78775 22.4725 6.77504C23.0431 6.44987 23.6163 6.12597 24.1882 5.80206C24.2314 5.77793 24.281 5.74109 24.3255 5.7449C24.3763 5.74871 24.4398 5.7792 24.4703 5.81858C24.4894 5.84398 24.4691 5.91257 24.4487 5.95195C24.4322 5.9837 24.389 6.0053 24.3547 6.02435C23.7726 6.35206 23.1906 6.67978 22.5882 7.01765Z" fill="black"/>
<path d="M4.68901 18.9116C4.73984 19.031 4.76653 19.0958 4.80338 19.1809C4.59751 19.3854 4.39036 19.5924 4.18194 19.7995C3.94429 20.0357 3.70664 20.272 3.46772 20.507C3.39655 20.5781 3.31141 20.6772 3.20974 20.5883C3.09155 20.4828 3.19576 20.3876 3.2682 20.305C3.35589 20.2059 3.44612 20.1094 3.54016 20.018C3.91125 19.6598 4.28361 19.3028 4.68901 18.9116Z" fill="black"/>
<path d="M10.0566 24.8857C10.2637 24.9035 10.3196 24.9924 10.3044 25.155C10.2523 25.7088 10.2129 26.2639 10.1569 26.8177C10.1455 26.927 10.1506 27.1073 9.98666 27.0934C9.78715 27.0756 9.86466 26.894 9.87483 26.7758C9.93075 26.1521 9.99302 25.5297 10.0566 24.8857Z" fill="black"/>
<path d="M21.5938 23.8375C21.6853 23.7626 21.7437 23.7143 21.8174 23.6533C22.3652 23.9848 22.9104 24.3113 23.4479 24.6466C23.5013 24.6797 23.5547 24.7838 23.5407 24.8359C23.509 24.9528 23.4073 24.9324 23.3183 24.8854C23.2014 24.8245 23.0832 24.7673 22.9714 24.6987C22.5202 24.4193 22.0691 24.136 21.5938 23.8375Z" fill="black"/>
<path d="M22.4375 23.1346C22.5201 23.0596 22.5773 23.0076 22.6459 22.9453C23.2369 23.3035 23.8176 23.6554 24.3972 24.0085C24.4315 24.0288 24.4798 24.053 24.4887 24.0834C24.5026 24.1355 24.5064 24.2041 24.4836 24.2498C24.4696 24.2778 24.3972 24.2867 24.3527 24.2854C24.3158 24.2841 24.279 24.2549 24.2434 24.2346C23.655 23.8751 23.0653 23.5169 22.4375 23.1346Z" fill="black"/>
<path d="M14.5605 3.97588C14.4207 4.04066 14.3228 4.01906 14.2529 3.86029C14.0216 3.33062 13.7827 2.80475 13.5463 2.27635C13.5298 2.23951 13.5044 2.19887 13.5082 2.16203C13.5133 2.11631 13.5349 2.04771 13.5667 2.03755C13.6137 2.02104 13.6836 2.03247 13.7293 2.05661C13.7687 2.0782 13.7941 2.13409 13.8145 2.17855C14.0674 2.75395 14.3177 3.32934 14.5668 3.90602C14.5732 3.9238 14.563 3.94666 14.5605 3.97588Z" fill="black"/>
<path d="M4.88565 10.5579C4.37477 10.0677 3.87913 9.5926 3.38603 9.11628C3.31105 9.04388 3.22972 8.9575 3.33647 8.86224C3.42162 8.78476 3.50422 8.84827 3.57412 8.91559C3.87913 9.21027 4.1854 9.50496 4.49041 9.79964C4.62131 9.92539 4.74713 10.0588 4.88565 10.1756C5.02036 10.2912 5.03689 10.403 4.88565 10.5579Z" fill="black"/>
<path d="M21.0839 5.80216C21.0203 5.76787 20.9542 5.7323 20.8983 5.70182C20.8882 5.66372 20.8767 5.64339 20.8793 5.62434C20.9682 5.0426 21.0572 4.46213 21.1487 3.88166C21.1652 3.77624 21.155 3.62255 21.3139 3.64414C21.488 3.66827 21.4423 3.82323 21.4232 3.93882C21.3291 4.53961 21.2313 5.1404 21.1334 5.73993C21.1322 5.75644 21.1106 5.77041 21.0839 5.80216Z" fill="black"/>
<path d="M4.20266 17.3903C3.71083 17.3306 3.24061 17.2734 2.76912 17.215C2.53782 17.1858 2.30652 17.1616 2.07777 17.1184C2.03074 17.1095 1.99643 17.0257 1.95703 16.9774C2.00787 16.9393 2.05489 16.8911 2.11208 16.8657C2.14258 16.8517 2.19087 16.872 2.23027 16.8771C2.69287 16.933 3.15419 16.9901 3.61679 17.046C3.74769 17.0613 3.87732 17.0791 4.00949 17.0892C4.17343 17.1019 4.24206 17.1857 4.20266 17.3903Z" fill="black"/>
<path d="M20.1637 5.22463C19.9553 5.21066 19.9057 5.12555 19.9324 4.95915C20.0277 4.36978 20.1116 3.77913 20.2018 3.18848C20.2094 3.13894 20.2209 3.08305 20.2514 3.04749C20.2793 3.01446 20.3378 2.98525 20.3759 2.9916C20.414 2.99795 20.4623 3.04622 20.4738 3.08559C20.489 3.14148 20.4814 3.20626 20.4725 3.26596C20.3721 3.91377 20.2679 4.56285 20.1637 5.22463Z" fill="black"/>
<path d="M9.52634 5.40403C9.46406 5.00138 9.40306 4.6038 9.34333 4.20622C9.30775 3.96615 9.27344 3.72608 9.24039 3.48601C9.23277 3.42631 9.21243 3.36026 9.22896 3.30691C9.24421 3.25864 9.30012 3.19767 9.34333 3.19259C9.38654 3.18878 9.46279 3.23832 9.47677 3.2815C9.51108 3.38566 9.52125 3.49871 9.5365 3.60795C9.60894 4.10714 9.67757 4.60761 9.75382 5.1068C9.78051 5.28082 9.73094 5.38117 9.52634 5.40403Z" fill="black"/>
<path d="M4.48427 11.613C3.981 11.1277 3.50188 10.6641 3.02403 10.2005C2.9948 10.1725 2.95794 10.142 2.95032 10.1065C2.94142 10.0633 2.94269 9.99851 2.96811 9.97056C2.9948 9.94135 3.06216 9.92484 3.10155 9.93627C3.15493 9.95278 3.20449 9.99724 3.24643 10.0392C3.65438 10.4304 4.05725 10.828 4.47029 11.2154C4.60119 11.3373 4.60755 11.4453 4.48427 11.613Z" fill="black"/>
<path d="M16.25 4.02846C16.3593 3.81888 16.461 3.62454 16.5639 3.42892C16.7469 3.07961 16.9312 2.73157 17.1142 2.38353C17.1472 2.32129 17.1701 2.24635 17.2197 2.20189C17.2629 2.16251 17.3379 2.1587 17.3989 2.13965C17.4167 2.19935 17.4446 2.25905 17.4497 2.32002C17.4523 2.35432 17.4192 2.39242 17.4001 2.42799C17.1422 2.91956 16.8791 3.40987 16.6262 3.90398C16.5499 4.0526 16.4622 4.12881 16.25 4.02846Z" fill="black"/>
<path d="M13.6176 25.9243C13.7154 25.9434 13.7828 25.9573 13.8463 25.97C13.8527 25.9993 13.8654 26.0209 13.859 26.0336C13.5668 26.5988 13.2719 27.1628 12.9771 27.7268C12.9542 27.7712 12.9301 27.8233 12.8919 27.8487C12.8563 27.8728 12.7915 27.8843 12.756 27.8677C12.7204 27.8512 12.6937 27.7941 12.6848 27.7509C12.6784 27.7166 12.6988 27.6721 12.7166 27.6378C13.0114 27.0726 13.3088 26.5112 13.6176 25.9243Z" fill="black"/>
<path d="M4.50258 18.4692C4.07048 18.4171 3.66889 18.3701 3.26857 18.3206C3.01694 18.2901 2.76531 18.2545 2.51368 18.2215C2.41837 18.2088 2.31543 18.191 2.32941 18.0691C2.34466 17.9332 2.45395 17.9357 2.56324 17.951C3.1364 18.0259 3.70956 18.1034 4.28399 18.1669C4.4581 18.1872 4.50639 18.2761 4.50258 18.4692Z" fill="black"/>
<path d="M20.2129 24.7549C20.2942 25.4243 20.373 26.0695 20.4518 26.7135C20.4543 26.7339 20.467 26.7593 20.4581 26.7732C20.4251 26.8291 20.3959 26.9117 20.3476 26.9282C20.251 26.96 20.2014 26.885 20.19 26.7936C20.1519 26.5116 20.115 26.2296 20.0794 25.9476C20.0413 25.6453 20.0057 25.343 19.9701 25.0407C19.9473 24.8413 19.9473 24.8413 20.2129 24.7549Z" fill="black"/>
<path d="M15.1289 3.96643C15.1594 3.8953 15.181 3.83052 15.2115 3.77082C15.4708 3.27798 15.73 2.78641 15.9906 2.29356C16.0096 2.258 16.0274 2.22116 16.049 2.18687C16.0948 2.11827 16.1456 2.0446 16.2435 2.09668C16.3299 2.14368 16.34 2.21862 16.293 2.30373C16.2778 2.3304 16.2676 2.35835 16.2523 2.38502C15.9969 2.8677 15.7364 3.34911 15.4873 3.8356C15.4085 3.99438 15.3043 4.02994 15.1289 3.96643Z" fill="black"/>
<path d="M21.543 6.10236C22.0221 5.83307 22.4961 5.56632 22.9702 5.29957C23.0845 5.23479 23.1989 5.17128 23.3146 5.10904C23.3959 5.06585 23.4836 5.0595 23.5141 5.15731C23.5294 5.20685 23.4849 5.28179 23.4531 5.33514C23.4353 5.36562 23.387 5.3796 23.3514 5.39865C22.8761 5.6654 22.4008 5.93342 21.9242 6.19762C21.7361 6.30432 21.7336 6.30051 21.543 6.10236Z" fill="black"/>
<path d="M25.8566 12.9795C26.5149 13.1205 27.1275 13.2526 27.7413 13.3847C27.7705 13.391 27.8086 13.3923 27.8277 13.4114C27.8735 13.4558 27.9103 13.5092 27.9497 13.56C27.8963 13.5955 27.8468 13.6375 27.7896 13.6654C27.7667 13.6768 27.7299 13.6616 27.7006 13.6552C27.1364 13.5333 26.5721 13.4075 26.0066 13.2907C25.8325 13.2539 25.8566 13.1408 25.8566 12.9795Z" fill="black"/>
<path d="M8.42931 23.8594C8.50175 23.9089 8.56656 23.9521 8.63773 24.0016C8.61358 24.0359 8.60214 24.0664 8.58054 24.0817C8.0506 24.4221 7.52065 24.7612 6.98944 25.0991C6.96402 25.1156 6.93733 25.1423 6.91065 25.1423C6.8471 25.1423 6.78356 25.1296 6.71875 25.1207C6.73019 25.0572 6.73654 24.9911 6.7556 24.9301C6.76323 24.9073 6.80136 24.892 6.82677 24.8755C7.35926 24.5389 7.89047 24.2011 8.42931 23.8594Z" fill="black"/>
<path d="M8.56485 6.02922C8.46954 5.36617 8.37804 4.74505 8.29417 4.12392C8.28019 4.02358 8.22427 3.87496 8.38567 3.84702C8.5496 3.81908 8.54324 3.97658 8.55849 4.0782C8.64237 4.62946 8.71099 5.182 8.79995 5.73326C8.8279 5.91363 8.72624 5.95935 8.56485 6.02922Z" fill="black"/>
<path d="M25.6011 11.8853C25.657 11.8878 25.7066 11.884 25.7536 11.8941C26.328 12.0173 26.9012 12.1418 27.4744 12.2676C27.5226 12.2777 27.5786 12.2917 27.6129 12.3235C27.6446 12.3527 27.6739 12.4111 27.6662 12.4492C27.6586 12.4873 27.6078 12.5343 27.5671 12.5432C27.5112 12.5559 27.4464 12.5445 27.3879 12.5318C26.8631 12.4174 26.3407 12.2955 25.8159 12.1901C25.6405 12.1545 25.582 12.0669 25.6011 11.8853Z" fill="black"/>
<path d="M9.10277 24.335C9.27053 24.3743 9.33153 24.4633 9.31373 24.6246C9.25146 25.1898 9.19681 25.7551 9.13962 26.3216C9.12946 26.4181 9.10404 26.5236 8.98458 26.4931C8.93375 26.4804 8.8702 26.3724 8.87529 26.314C8.9312 25.6776 8.99983 25.0412 9.06592 24.4048C9.06846 24.3858 9.08498 24.3693 9.10277 24.335Z" fill="black"/>
<path d="M21.1782 24.1548C21.2011 24.3326 21.2227 24.4901 21.2417 24.6476C21.2964 25.0998 21.351 25.552 21.4044 26.0055C21.412 26.0754 21.4196 26.149 21.4031 26.2163C21.3942 26.2545 21.3409 26.304 21.3027 26.3078C21.2646 26.3116 21.2011 26.2773 21.1833 26.2418C21.1528 26.1808 21.1439 26.1058 21.135 26.036C21.0689 25.5038 21.0066 24.9703 20.9367 24.438C20.9139 24.2628 21.0181 24.2132 21.1782 24.1548Z" fill="black"/>
<path d="M24.7656 20.0916C24.8215 20.0053 24.8635 19.9392 24.9194 19.8516C25.3515 20.3647 25.7684 20.8576 26.1839 21.3517C26.2475 21.4266 26.2831 21.5143 26.1827 21.5867C26.0962 21.6502 26.0302 21.5917 25.9755 21.527C25.5777 21.057 25.1812 20.5857 24.7656 20.0916Z" fill="black"/>
<path d="M25.3737 18.8086C25.4359 18.8734 25.4995 18.9343 25.5554 19.0017C25.8884 19.3954 26.2201 19.7905 26.5518 20.1855C26.5975 20.2401 26.6534 20.2909 26.6776 20.3544C26.6954 20.4002 26.6877 20.4853 26.6572 20.5119C26.6242 20.5412 26.5416 20.5399 26.4946 20.5196C26.4437 20.4967 26.4069 20.4395 26.3675 20.3925C26.0358 19.9975 25.7079 19.5987 25.3699 19.21C25.2529 19.0741 25.2288 18.9572 25.3737 18.8086Z" fill="black"/>
<path d="M15.0342 26.0341C14.8868 26.3148 14.766 26.5473 14.644 26.7797C14.4649 27.1201 14.2882 27.4631 14.0988 27.7984C14.0683 27.8531 13.9641 27.9153 13.9146 27.9013C13.7977 27.8696 13.8193 27.7603 13.8637 27.6752C14.137 27.1544 14.414 26.6349 14.6885 26.1154C14.7597 25.9808 14.8702 26.0265 15.0342 26.0341Z" fill="black"/>
</svg>
