<svg width="16" height="18" viewBox="0 0 16 18" fill="none" xmlns="http://www.w3.org/2000/svg">
<path d="M8.2445 0C3.31025 0.00075 0.6875 3.162 0.6875 6.609C0.6875 8.20725 1.58075 10.2015 3.011 10.8338C3.419 11.0175 3.365 10.7933 3.716 9.45075C3.74375 9.339 3.7295 9.24225 3.6395 9.138C1.595 6.77325 3.2405 1.91175 7.95275 1.91175C14.7725 1.91175 13.4983 11.3483 9.13925 11.3483C8.01575 11.3483 7.17875 10.4663 7.4435 9.375C7.7645 8.07525 8.393 6.678 8.393 5.74125C8.393 3.38025 4.8755 3.7305 4.8755 6.85875C4.8755 7.8255 5.2175 8.478 5.2175 8.478C5.2175 8.478 4.08575 13.05 3.87575 13.9043C3.52025 15.3503 3.92375 17.691 3.959 17.8928C3.98075 18.0038 4.10525 18.039 4.175 17.9475C4.28675 17.8013 5.65475 15.8498 6.038 14.439C6.1775 13.9253 6.74975 11.8403 6.74975 11.8403C7.127 12.5213 8.2145 13.0913 9.37325 13.0913C12.8203 13.0913 15.3118 10.0613 15.3118 6.3015C15.2998 2.697 12.215 0 8.2445 0V0Z" fill="#CF4F4C"/>
</svg>
