<svg width="8" height="6" viewBox="0 0 8 6" fill="none" xmlns="http://www.w3.org/2000/svg">
<path fill-rule="evenodd" clip-rule="evenodd" d="M0.0946074 0.707202C0.256335 0.483375 0.568889 0.433033 0.792717 0.594761L0.797249 0.598046L0.80868 0.606373L0.850955 0.637436C0.887328 0.664303 0.939564 0.70321 1.00418 0.75221C1.13329 0.85011 1.31252 0.98883 1.51384 1.15274C1.91114 1.47622 2.41499 1.91428 2.78526 2.33745C3.15316 2.7579 3.56775 3.36823 3.88127 3.85585C3.92238 3.91977 3.96201 3.98202 3.99988 4.04195C4.03775 3.98202 4.07739 3.91977 4.11849 3.85585C4.43202 3.36823 4.84661 2.7579 5.2145 2.33745C5.58477 1.91428 6.08863 1.47621 6.48593 1.15274C6.68725 0.98883 6.86648 0.85011 6.99558 0.75221C7.0602 0.70321 7.11244 0.664303 7.14881 0.637436L7.19109 0.606373L7.20252 0.598046L7.20658 0.5951C7.20662 0.595072 7.20705 0.594763 7.4689 0.957158L7.20658 0.5951C7.43041 0.433372 7.74343 0.483375 7.90516 0.707202C8.06688 0.931014 8.01655 1.24354 7.79276 1.40528L7.79017 1.40716L7.78082 1.41397L7.74295 1.4418C7.70963 1.46641 7.66077 1.5028 7.5998 1.54903C7.47774 1.64159 7.30784 1.77309 7.11731 1.92821C6.73092 2.24281 6.28023 2.63807 5.96708 2.99595C5.65156 3.35655 5.27069 3.91289 4.95962 4.39668C4.80633 4.63508 4.67386 4.84975 4.57976 5.00476C4.53275 5.0822 4.49542 5.14458 4.46996 5.18738L4.44099 5.2363L4.43372 5.24866L4.43197 5.25163C4.3423 5.40499 4.17753 5.50004 3.99988 5.50004C3.82223 5.50004 3.65792 5.40577 3.56825 5.25241C3.56825 5.2524 3.56826 5.25242 3.56825 5.25241L3.56605 5.24866L3.55878 5.2363L3.5298 5.18738C3.50435 5.14458 3.46701 5.0822 3.42 5.00476C3.3259 4.84975 3.19343 4.63508 3.04015 4.39668C2.72907 3.91289 2.34821 3.35655 2.03269 2.99596C1.71954 2.63807 1.26885 2.24281 0.882456 1.92821C0.691928 1.77309 0.522027 1.64159 0.399962 1.54903C0.338996 1.5028 0.290137 1.46641 0.256811 1.4418L0.218949 1.41397L0.209591 1.40716L0.207447 1.4056C-0.0163404 1.24386 -0.0671092 0.931014 0.0946074 0.707202Z" fill="#848380"/>
</svg>
