<svg width="18" height="13" viewBox="0 0 18 13" fill="none" xmlns="http://www.w3.org/2000/svg">
<path d="M17.082 2.78092C16.8875 2.05799 16.3175 1.48811 15.5947 1.29344C14.2742 0.932129 8.99198 0.932129 8.99198 0.932129C8.99198 0.932129 3.71 0.932129 2.38947 1.27974C1.68055 1.4742 1.09666 2.05809 0.902199 2.78092C0.554688 4.10134 0.554688 6.83972 0.554688 6.83972C0.554688 6.83972 0.554688 9.5919 0.902199 10.8985C1.09686 11.6213 1.66664 12.1912 2.38958 12.3859C3.7239 12.7473 8.99219 12.7473 8.99219 12.7473C8.99219 12.7473 14.2742 12.7473 15.5947 12.3997C16.3176 12.2051 16.8875 11.6352 17.0822 10.9124C17.4296 9.5919 17.4296 6.85362 17.4296 6.85362C17.4296 6.85362 17.4435 4.10134 17.082 2.78092ZM7.31025 9.36952V4.30991L11.7027 6.83972L7.31025 9.36952Z" fill="#CF4F4C"/>
</svg>
