<svg width="18" height="18" viewBox="0 0 18 18" fill="none" xmlns="http://www.w3.org/2000/svg">
<g clip-path="url(#clip0_38_6443)">
<path d="M12.75 1.5H5.25C3.17893 1.5 1.5 3.17893 1.5 5.25V12.75C1.5 14.8211 3.17893 16.5 5.25 16.5H12.75C14.8211 16.5 16.5 14.8211 16.5 12.75V5.25C16.5 3.17893 14.8211 1.5 12.75 1.5Z" stroke="#CF4F4C" stroke-width="2" stroke-linecap="round" stroke-linejoin="round"/>
<path d="M11.9988 8.52773C12.0914 9.15191 11.9847 9.78939 11.6941 10.3495C11.4035 10.9096 10.9437 11.3638 10.38 11.6475C9.81638 11.9312 9.17764 12.0299 8.55464 11.9297C7.93165 11.8294 7.35612 11.5353 6.90993 11.0891C6.46374 10.6429 6.1696 10.0674 6.06935 9.44439C5.96911 8.82139 6.06785 8.18265 6.35155 7.61901C6.63524 7.05537 7.08944 6.59553 7.64954 6.30491C8.20964 6.01428 8.84712 5.90767 9.4713 6.00023C10.108 6.09464 10.6974 6.39132 11.1526 6.84646C11.6077 7.30159 11.9044 7.89103 11.9988 8.52773Z" stroke="#CF4F4C" stroke-width="2" stroke-linecap="round" stroke-linejoin="round"/>
</g>
<defs>
<clipPath id="clip0_38_6443">
<rect width="18" height="18" fill="white"/>
</clipPath>
</defs>
</svg>
