<svg width="11" height="13" viewBox="0 0 11 13" fill="none" xmlns="http://www.w3.org/2000/svg">
<path fill-rule="evenodd" clip-rule="evenodd" d="M7.84375 1.34375H3.15625C3.03193 1.34375 2.9127 1.29436 2.82479 1.20646C2.73689 1.11855 2.6875 0.99932 2.6875 0.875C2.6875 0.75068 2.73689 0.631451 2.82479 0.543544C2.9127 0.455636 3.03193 0.40625 3.15625 0.40625H7.84375C7.96807 0.40625 8.0873 0.455636 8.17521 0.543544C8.26311 0.631451 8.3125 0.75068 8.3125 0.875C8.3125 0.99932 8.26311 1.11855 8.17521 1.20646C8.0873 1.29436 7.96807 1.34375 7.84375 1.34375ZM10.3793 2.32189C10.4391 2.34853 10.4926 2.38738 10.5364 2.43594C10.5808 2.48422 10.6147 2.54129 10.6357 2.60347C10.6566 2.66564 10.6644 2.73153 10.6583 2.79688L9.80046 11.3188C9.76767 11.6685 9.60516 11.9933 9.34491 12.2293C9.08465 12.4653 8.7455 12.5953 8.39421 12.5938H2.61452C2.26248 12.5952 1.92272 12.4645 1.66235 12.2276C1.40198 11.9906 1.23995 11.6647 1.20827 11.3141L0.345768 2.79688C0.339685 2.73153 0.347391 2.66564 0.368385 2.60347C0.389379 2.54129 0.423195 2.48422 0.467643 2.43594C0.511468 2.38738 0.564972 2.34853 0.624712 2.32189C0.684452 2.29525 0.749107 2.2814 0.814518 2.28125H10.1895C10.2549 2.2814 10.3196 2.29525 10.3793 2.32189ZM8.7116 11.5342C8.79839 11.4552 8.8524 11.3466 8.86296 11.2297L9.66921 3.21875H1.33483L2.14108 11.225C2.15053 11.3427 2.20405 11.4525 2.29096 11.5325C2.37786 11.6124 2.49174 11.6566 2.60983 11.6562H8.39421C8.51155 11.6567 8.62481 11.6132 8.7116 11.5342ZM4.09375 9.78125C4.21807 9.78125 4.3373 9.73186 4.42521 9.64396C4.51311 9.55605 4.5625 9.43682 4.5625 9.3125V5.5625C4.5625 5.43818 4.51311 5.31895 4.42521 5.23104C4.3373 5.14314 4.21807 5.09375 4.09375 5.09375C3.96943 5.09375 3.8502 5.14314 3.76229 5.23104C3.67439 5.31895 3.625 5.43818 3.625 5.5625V9.3125C3.625 9.43682 3.67439 9.55605 3.76229 9.64396C3.8502 9.73186 3.96943 9.78125 4.09375 9.78125ZM7.23771 9.64396C7.1498 9.73186 7.03057 9.78125 6.90625 9.78125C6.78193 9.78125 6.6627 9.73186 6.57479 9.64396C6.48689 9.55605 6.4375 9.43682 6.4375 9.3125V5.5625C6.4375 5.43818 6.48689 5.31895 6.57479 5.23104C6.6627 5.14314 6.78193 5.09375 6.90625 5.09375C7.03057 5.09375 7.1498 5.14314 7.23771 5.23104C7.32561 5.31895 7.375 5.43818 7.375 5.5625V9.3125C7.375 9.43682 7.32561 9.55605 7.23771 9.64396Z" fill="#72716E"/>
</svg>
